<svg width="50" height="50" viewBox="0 0 50 50" fill="none" xmlns="http://www.w3.org/2000/svg">
<path fill-rule="evenodd" clip-rule="evenodd" d="M10.319 3.26877C10.3723 3.24786 10.4266 3.22912 10.4816 3.21262C10.6964 3.14809 10.9142 3.12001 11.128 3.12502H38.872C39.0852 3.12002 39.3023 3.14792 39.5164 3.21202C39.5721 3.22867 39.627 3.24761 39.681 3.26877C40.1421 3.44924 40.5045 3.77795 40.7326 4.18052L48.6636 17.9936C48.8277 18.2677 48.9306 18.5826 48.9535 18.9195C48.9557 18.9521 48.9572 18.9848 48.9579 19.0175C48.9586 19.0487 48.9585 19.0798 48.9578 19.111C48.9464 19.6111 48.7587 20.0677 48.4545 20.421L26.6012 46.1247C26.5454 46.1917 26.4857 46.2549 26.4223 46.314C26.315 46.4142 26.1975 46.5027 26.0718 46.5782C25.7552 46.7682 25.3868 46.875 25 46.875C24.369 46.875 23.7871 46.5908 23.399 46.1249L1.5456 20.4212C1.24121 20.0676 1.05349 19.6108 1.04221 19.1104C1.04111 19.0626 1.04164 19.0148 1.04382 18.9671C1.05982 18.6122 1.16458 18.2805 1.33643 17.9936L9.2673 4.18066C9.49541 3.77802 9.85788 3.44926 10.319 3.26877ZM21.1742 7.29168H14.0206L16.5424 14.4624L21.1742 7.29168ZM19.877 16.9792H30.123L25 9.048L19.877 16.9792ZM33.4576 14.4624L28.8259 7.29168H35.9794L33.4576 14.4624ZM39.3775 10.1884L43.2765 16.9792H36.9894L39.3775 10.1884ZM25 38.512L31.1072 21.1459H18.8928L25 38.512ZM10.6225 10.1884L13.0107 16.9792H6.72349L10.6225 10.1884ZM14.476 21.1459H7.63079L19.3047 34.8766L14.476 21.1459ZM42.3692 21.1459H35.5241L30.6953 34.8766L42.3692 21.1459Z" fill="#15CDCB"/>
</svg>
