<svg width="155" height="46" viewBox="0 0 155 46" fill="none" xmlns="http://www.w3.org/2000/svg">
<path d="M21.656 20L17.672 13.16H15.032V20H12.848V3.272H18.248C19.512 3.272 20.576 3.488 21.44 3.92C22.32 4.352 22.976 4.936 23.408 5.672C23.84 6.408 24.056 7.248 24.056 8.192C24.056 9.344 23.72 10.36 23.048 11.24C22.392 12.12 21.4 12.704 20.072 12.992L24.272 20H21.656ZM15.032 11.408H18.248C19.432 11.408 20.32 11.12 20.912 10.544C21.504 9.952 21.8 9.168 21.8 8.192C21.8 7.2 21.504 6.432 20.912 5.888C20.336 5.344 19.448 5.072 18.248 5.072H15.032V11.408ZM33.1856 20.216C31.9536 20.216 30.8336 19.936 29.8256 19.376C28.8336 18.816 28.0496 18.024 27.4736 17C26.9136 15.96 26.6336 14.76 26.6336 13.4C26.6336 12.056 26.9216 10.872 27.4976 9.848C28.0896 8.808 28.8896 8.016 29.8976 7.472C30.9056 6.912 32.0336 6.632 33.2816 6.632C34.5296 6.632 35.6576 6.912 36.6656 7.472C37.6736 8.016 38.4656 8.8 39.0416 9.824C39.6336 10.848 39.9296 12.04 39.9296 13.4C39.9296 14.76 39.6256 15.96 39.0176 17C38.4256 18.024 37.6176 18.816 36.5936 19.376C35.5696 19.936 34.4336 20.216 33.1856 20.216ZM33.1856 18.296C33.9696 18.296 34.7056 18.112 35.3936 17.744C36.0816 17.376 36.6336 16.824 37.0496 16.088C37.4816 15.352 37.6976 14.456 37.6976 13.4C37.6976 12.344 37.4896 11.448 37.0736 10.712C36.6576 9.976 36.1136 9.432 35.4416 9.08C34.7696 8.712 34.0416 8.528 33.2576 8.528C32.4576 8.528 31.7216 8.712 31.0496 9.08C30.3936 9.432 29.8656 9.976 29.4656 10.712C29.0656 11.448 28.8656 12.344 28.8656 13.4C28.8656 14.472 29.0576 15.376 29.4416 16.112C29.8416 16.848 30.3696 17.4 31.0256 17.768C31.6816 18.12 32.4016 18.296 33.1856 18.296ZM58.6171 6.608C59.6411 6.608 60.5531 6.824 61.3531 7.256C62.1531 7.672 62.7851 8.304 63.2491 9.152C63.7131 10 63.9451 11.032 63.9451 12.248V20H61.7851V12.56C61.7851 11.248 61.4571 10.248 60.8011 9.56C60.1611 8.856 59.2891 8.504 58.1851 8.504C57.0491 8.504 56.1451 8.872 55.4731 9.608C54.8011 10.328 54.4651 11.376 54.4651 12.752V20H52.3051V12.56C52.3051 11.248 51.9771 10.248 51.3211 9.56C50.6811 8.856 49.8091 8.504 48.7051 8.504C47.5691 8.504 46.6651 8.872 45.9931 9.608C45.3211 10.328 44.9851 11.376 44.9851 12.752V20H42.8011V6.848H44.9851V8.744C45.4171 8.056 45.9931 7.528 46.7131 7.16C47.4491 6.792 48.2571 6.608 49.1371 6.608C50.2411 6.608 51.2171 6.856 52.0651 7.352C52.9131 7.848 53.5451 8.576 53.9611 9.536C54.3291 8.608 54.9371 7.888 55.7851 7.376C56.6331 6.864 57.5771 6.608 58.6171 6.608ZM79.1917 6.848V20H77.0077V18.056C76.5917 18.728 76.0077 19.256 75.2557 19.64C74.5197 20.008 73.7037 20.192 72.8077 20.192C71.7837 20.192 70.8637 19.984 70.0477 19.568C69.2317 19.136 68.5837 18.496 68.1037 17.648C67.6397 16.8 67.4077 15.768 67.4077 14.552V6.848H69.5677V14.264C69.5677 15.56 69.8957 16.56 70.5517 17.264C71.2077 17.952 72.1037 18.296 73.2397 18.296C74.4077 18.296 75.3277 17.936 75.9997 17.216C76.6717 16.496 77.0077 15.448 77.0077 14.072V6.848H79.1917ZM85.0633 2.24V20H82.8793V2.24H85.0633ZM94.5215 20.216C93.2895 20.216 92.1695 19.936 91.1615 19.376C90.1695 18.816 89.3855 18.024 88.8095 17C88.2495 15.96 87.9695 14.76 87.9695 13.4C87.9695 12.056 88.2575 10.872 88.8335 9.848C89.4255 8.808 90.2255 8.016 91.2335 7.472C92.2415 6.912 93.3695 6.632 94.6175 6.632C95.8655 6.632 96.9935 6.912 98.0015 7.472C99.0095 8.016 99.8015 8.8 100.378 9.824C100.97 10.848 101.266 12.04 101.266 13.4C101.266 14.76 100.962 15.96 100.354 17C99.7615 18.024 98.9535 18.816 97.9295 19.376C96.9055 19.936 95.7695 20.216 94.5215 20.216ZM94.5215 18.296C95.3055 18.296 96.0415 18.112 96.7295 17.744C97.4175 17.376 97.9695 16.824 98.3855 16.088C98.8175 15.352 99.0335 14.456 99.0335 13.4C99.0335 12.344 98.8255 11.448 98.4095 10.712C97.9935 9.976 97.4495 9.432 96.7775 9.08C96.1055 8.712 95.3775 8.528 94.5935 8.528C93.7935 8.528 93.0575 8.712 92.3855 9.08C91.7295 9.432 91.2015 9.976 90.8015 10.712C90.4015 11.448 90.2015 12.344 90.2015 13.4C90.2015 14.472 90.3935 15.376 90.7775 16.112C91.1775 16.848 91.7055 17.4 92.3615 17.768C93.0175 18.12 93.7375 18.296 94.5215 18.296ZM15.032 39.224H20.888V41H12.848V24.272H15.032V39.224ZM35.2074 33.92C35.2074 34.336 35.1834 34.776 35.1354 35.24H24.6234C24.7034 36.536 25.1434 37.552 25.9434 38.288C26.7594 39.008 27.7434 39.368 28.8954 39.368C29.8394 39.368 30.6234 39.152 31.2474 38.72C31.8874 38.272 32.3354 37.68 32.5914 36.944H34.9434C34.5914 38.208 33.8874 39.24 32.8314 40.04C31.7754 40.824 30.4634 41.216 28.8954 41.216C27.6474 41.216 26.5274 40.936 25.5354 40.376C24.5594 39.816 23.7914 39.024 23.2314 38C22.6714 36.96 22.3914 35.76 22.3914 34.4C22.3914 33.04 22.6634 31.848 23.2074 30.824C23.7514 29.8 24.5114 29.016 25.4874 28.472C26.4794 27.912 27.6154 27.632 28.8954 27.632C30.1434 27.632 31.2474 27.904 32.2074 28.448C33.1674 28.992 33.9034 29.744 34.4154 30.704C34.9434 31.648 35.2074 32.72 35.2074 33.92ZM32.9514 33.464C32.9514 32.632 32.7674 31.92 32.3994 31.328C32.0314 30.72 31.5274 30.264 30.8874 29.96C30.2634 29.64 29.5674 29.48 28.7994 29.48C27.6954 29.48 26.7514 29.832 25.9674 30.536C25.1994 31.24 24.7594 32.216 24.6474 33.464H32.9514ZM42.7462 41.216C41.7382 41.216 40.8342 41.048 40.0342 40.712C39.2342 40.36 38.6022 39.88 38.1382 39.272C37.6742 38.648 37.4182 37.936 37.3702 37.136H39.6262C39.6902 37.792 39.9942 38.328 40.5382 38.744C41.0982 39.16 41.8262 39.368 42.7222 39.368C43.5542 39.368 44.2102 39.184 44.6902 38.816C45.1702 38.448 45.4102 37.984 45.4102 37.424C45.4102 36.848 45.1542 36.424 44.6422 36.152C44.1302 35.864 43.3382 35.584 42.2662 35.312C41.2902 35.056 40.4902 34.8 39.8662 34.544C39.2582 34.272 38.7302 33.88 38.2822 33.368C37.8502 32.84 37.6342 32.152 37.6342 31.304C37.6342 30.632 37.8342 30.016 38.2342 29.456C38.6342 28.896 39.2022 28.456 39.9382 28.136C40.6742 27.8 41.5142 27.632 42.4582 27.632C43.9142 27.632 45.0902 28 45.9862 28.736C46.8822 29.472 47.3622 30.48 47.4262 31.76H45.2422C45.1942 31.072 44.9142 30.52 44.4022 30.104C43.9062 29.688 43.2342 29.48 42.3862 29.48C41.6022 29.48 40.9782 29.648 40.5142 29.984C40.0502 30.32 39.8182 30.76 39.8182 31.304C39.8182 31.736 39.9542 32.096 40.2262 32.384C40.5142 32.656 40.8662 32.88 41.2822 33.056C41.7142 33.216 42.3062 33.4 43.0582 33.608C44.0022 33.864 44.7702 34.12 45.3622 34.376C45.9542 34.616 46.4582 34.984 46.8742 35.48C47.3062 35.976 47.5302 36.624 47.5462 37.424C47.5462 38.144 47.3462 38.792 46.9462 39.368C46.5462 39.944 45.9782 40.4 45.2422 40.736C44.5222 41.056 43.6902 41.216 42.7462 41.216ZM55.2853 41.216C54.2773 41.216 53.3733 41.048 52.5733 40.712C51.7733 40.36 51.1413 39.88 50.6773 39.272C50.2133 38.648 49.9573 37.936 49.9093 37.136H52.1653C52.2293 37.792 52.5333 38.328 53.0773 38.744C53.6373 39.16 54.3653 39.368 55.2613 39.368C56.0933 39.368 56.7493 39.184 57.2293 38.816C57.7093 38.448 57.9493 37.984 57.9493 37.424C57.9493 36.848 57.6933 36.424 57.1813 36.152C56.6693 35.864 55.8773 35.584 54.8053 35.312C53.8293 35.056 53.0293 34.8 52.4053 34.544C51.7973 34.272 51.2693 33.88 50.8213 33.368C50.3893 32.84 50.1733 32.152 50.1733 31.304C50.1733 30.632 50.3733 30.016 50.7733 29.456C51.1733 28.896 51.7413 28.456 52.4773 28.136C53.2133 27.8 54.0533 27.632 54.9973 27.632C56.4533 27.632 57.6293 28 58.5253 28.736C59.4213 29.472 59.9013 30.48 59.9653 31.76H57.7813C57.7333 31.072 57.4533 30.52 56.9413 30.104C56.4453 29.688 55.7733 29.48 54.9253 29.48C54.1413 29.48 53.5173 29.648 53.0533 29.984C52.5893 30.32 52.3573 30.76 52.3573 31.304C52.3573 31.736 52.4933 32.096 52.7653 32.384C53.0533 32.656 53.4053 32.88 53.8213 33.056C54.2533 33.216 54.8453 33.4 55.5973 33.608C56.5413 33.864 57.3093 34.12 57.9013 34.376C58.4933 34.616 58.9973 34.984 59.4133 35.48C59.8453 35.976 60.0693 36.624 60.0853 37.424C60.0853 38.144 59.8853 38.792 59.4853 39.368C59.0853 39.944 58.5173 40.4 57.7813 40.736C57.0613 41.056 56.2293 41.216 55.2853 41.216ZM62.3523 34.376C62.3523 33.032 62.6243 31.856 63.1683 30.848C63.7123 29.824 64.4563 29.032 65.4003 28.472C66.3603 27.912 67.4243 27.632 68.5923 27.632C69.7443 27.632 70.7443 27.88 71.5923 28.376C72.4403 28.872 73.0723 29.496 73.4883 30.248V27.848H75.6963V41H73.4883V38.552C73.0563 39.32 72.4083 39.96 71.5443 40.472C70.6963 40.968 69.7043 41.216 68.5683 41.216C67.4003 41.216 66.3443 40.928 65.4003 40.352C64.4563 39.776 63.7123 38.968 63.1683 37.928C62.6243 36.888 62.3523 35.704 62.3523 34.376ZM73.4883 34.4C73.4883 33.408 73.2883 32.544 72.8883 31.808C72.4883 31.072 71.9443 30.512 71.2563 30.128C70.5843 29.728 69.8403 29.528 69.0243 29.528C68.2083 29.528 67.4643 29.72 66.7923 30.104C66.1203 30.488 65.5843 31.048 65.1843 31.784C64.7843 32.52 64.5843 33.384 64.5843 34.376C64.5843 35.384 64.7843 36.264 65.1843 37.016C65.5843 37.752 66.1203 38.32 66.7923 38.72C67.4643 39.104 68.2083 39.296 69.0243 39.296C69.8403 39.296 70.5843 39.104 71.2563 38.72C71.9443 38.32 72.4883 37.752 72.8883 37.016C73.2883 36.264 73.4883 35.392 73.4883 34.4Z" fill="white"/>
<line x1="2" x2="2" y2="46" stroke="#5280E2" stroke-width="4"/>
</svg>
