<svg width="50" height="50" viewBox="0 0 50 50" fill="none" xmlns="http://www.w3.org/2000/svg">
<path fill-rule="evenodd" clip-rule="evenodd" d="M2.08334 10.4167C2.08334 8.11548 3.94882 6.25 6.25001 6.25H43.75C46.0512 6.25 47.9167 8.11548 47.9167 10.4167V39.5833C47.9167 41.8845 46.0512 43.75 43.75 43.75H6.25001C3.94882 43.75 2.08334 41.8845 2.08334 39.5833V10.4167ZM43.75 10.4167H6.25001V39.5833H43.75V10.4167ZM10.9182 17.3942C11.667 16.5206 12.9822 16.4194 13.8558 17.1682L21.1475 23.4182C21.6093 23.814 21.875 24.3918 21.875 25C21.875 25.6082 21.6093 26.186 21.1475 26.5818L13.8558 32.8318C12.9822 33.5806 11.667 33.4794 10.9182 32.6058C10.1694 31.7322 10.2706 30.417 11.1442 29.6682L16.5904 25L11.1442 20.3318C10.2706 19.583 10.1694 18.2678 10.9182 17.3942ZM21.875 33.3333C21.875 32.1827 22.8078 31.25 23.9583 31.25H37.5C38.6506 31.25 39.5833 32.1827 39.5833 33.3333C39.5833 34.4839 38.6506 35.4167 37.5 35.4167H23.9583C22.8078 35.4167 21.875 34.4839 21.875 33.3333Z" fill="#15CDCB"/>
</svg>
