<svg width="46" height="44" viewBox="0 0 46 44" fill="none" xmlns="http://www.w3.org/2000/svg">
<path d="M27.8383 2.46777C27.9816 1.32614 27.1723 0.284493 26.0306 0.141196C24.889 -0.00209981 23.8474 0.807214 23.7041 1.94885L18.7356 41.5322C18.5923 42.6738 19.4016 43.7155 20.5433 43.8588C21.6849 44.0021 22.7266 43.1927 22.8698 42.0511L27.8383 2.46777Z" fill="#15CDCB"/>
<path d="M16.1135 9.04268C16.9414 9.84176 16.9647 11.1606 16.1656 11.9885L5.11342 23.4388L16.1125 34.0417C16.9409 34.8403 16.9651 36.1592 16.1666 36.9875C15.368 37.8159 14.0492 37.8401 13.2208 37.0415L0.720785 24.9918C0.322818 24.6081 0.0936264 24.0821 0.0836704 23.5294C0.0737142 22.9767 0.28381 22.4427 0.667702 22.045L13.1677 9.09479C13.9668 8.26694 15.2857 8.2436 16.1135 9.04268Z" fill="#15CDCB"/>
<path d="M29.8865 9.04268C30.7143 8.2436 32.0332 8.26694 32.8323 9.09479L45.3323 22.045C45.7162 22.4427 45.9263 22.9767 45.9163 23.5294C45.9064 24.0821 45.6772 24.6081 45.2792 24.9918L32.7792 37.0415C31.9508 37.8401 30.632 37.8159 29.8334 36.9875C29.0349 36.1592 29.0591 34.8403 29.8875 34.0417L40.8866 23.4388L29.8344 11.9885C29.0353 11.1606 29.0586 9.84176 29.8865 9.04268Z" fill="#15CDCB"/>
</svg>
